<?xml version="1.0" encoding="utf-8"?>
<!-- Generator: Adobe Illustrator 15.1.0, SVG Export Plug-In . SVG Version: 6.00 Build 0)  -->
<!DOCTYPE svg PUBLIC "-//W3C//DTD SVG 1.1//EN" "http://www.w3.org/Graphics/SVG/1.1/DTD/svg11.dtd" [
	<!ENTITY ns_extend "http://ns.adobe.com/Extensibility/1.0/">
	<!ENTITY ns_ai "http://ns.adobe.com/AdobeIllustrator/10.0/">
	<!ENTITY ns_graphs "http://ns.adobe.com/Graphs/1.0/">
	<!ENTITY ns_vars "http://ns.adobe.com/Variables/1.0/">
	<!ENTITY ns_imrep "http://ns.adobe.com/ImageReplacement/1.0/">
	<!ENTITY ns_sfw "http://ns.adobe.com/SaveForWeb/1.0/">
	<!ENTITY ns_custom "http://ns.adobe.com/GenericCustomNamespace/1.0/">
	<!ENTITY ns_adobe_xpath "http://ns.adobe.com/XPath/1.0/">
]>
<svg version="1.1" id="Ebene_1" xmlns:x="&ns_extend;" xmlns:i="&ns_ai;" xmlns:graph="&ns_graphs;"
	 xmlns="http://www.w3.org/2000/svg" xmlns:xlink="http://www.w3.org/1999/xlink" x="0px" y="0px" width="450.717px"
	 height="103.798px" viewBox="0 0 450.717 103.798" enable-background="new 0 0 450.717 103.798" xml:space="preserve">
<metadata>
	<sfw  xmlns="&ns_sfw;">
		<slices></slices>
		<sliceSourceBounds  x="389.523" y="-469.073" width="450.536" height="102.129" bottomLeftOrigin="true"></sliceSourceBounds>
	</sfw>
</metadata>
<g>
	<g>
		<g>
			<path fill="#2D3C64" d="M113.355,60.418h3.668v15.171h-3.668V60.418z"/>
			<path fill="#2D3C64" d="M119.028,64.058h3.007v1.64c0.194-0.528,0.494-0.943,0.887-1.238c0.398-0.298,0.813-0.483,1.255-0.562
				c0.087-0.015,0.177-0.026,0.261-0.031c0.086-0.003,0.172-0.012,0.259-0.012c0.672,0,1.275,0.207,1.813,0.628
				c0.54,0.415,0.812,0.981,0.812,1.693v9.413h-3.169V67.59c0-0.303-0.078-0.545-0.238-0.73c-0.161-0.183-0.331-0.293-0.515-0.343
				c-0.043,0-0.079-0.007-0.114-0.01c-0.031-0.006-0.056-0.01-0.087-0.01c-0.016,0-0.026,0-0.038,0c-0.009,0-0.017,0-0.032,0
				c-0.197,0.013-0.375,0.106-0.535,0.282s-0.239,0.444-0.239,0.811v7.999h-3.326V64.058z"/>
			<path fill="#2D3C64" d="M129.713,60.892h3.328v3.166h1.635v2.439h-1.635v6.081c0,0.242,0.061,0.432,0.192,0.561
				c0.128,0.127,0.313,0.195,0.558,0.195c0.059,0,0.134-0.01,0.214-0.027c0.086-0.014,0.17-0.027,0.265-0.044
				c0.026,0,0.061-0.004,0.091-0.011c0.029-0.007,0.063-0.014,0.089-0.014c0.044,0,0.087-0.003,0.125-0.014
				c0.041-0.003,0.07-0.007,0.101-0.007v2.371h-3.073c-0.641,0-1.114-0.249-1.423-0.738c-0.31-0.499-0.467-1.093-0.467-1.794v-6.56
				h-1.278v-2.439h1.278V60.892z"/>
			<path fill="#2D3C64" d="M139.094,72.1c0,0.451,0.113,0.815,0.334,1.086c0.218,0.263,0.458,0.404,0.718,0.418
				c0.01,0,0.027,0,0.034,0c0.005,0,0.015,0,0.034,0c0.015,0,0.025,0,0.032,0s0.022,0,0.036,0c0.272-0.014,0.524-0.162,0.752-0.444
				c0.228-0.281,0.342-0.688,0.342-1.218v-0.477h3.167v0.432c0,1.229-0.341,2.199-1.023,2.914c-0.684,0.715-1.665,1.072-2.94,1.072
				c-1.386,0-2.501-0.311-3.362-0.924c-0.858-0.613-1.286-1.511-1.286-2.698v-4.826c0-1.371,0.472-2.329,1.413-2.873
				c0.942-0.547,2.02-0.823,3.235-0.823c1.276,0,2.256,0.312,2.94,0.922c0.683,0.618,1.023,1.493,1.023,2.639v2.998h-5.448V72.1z
				 M141.535,68.225v-0.432c0-0.485-0.112-0.899-0.342-1.252c-0.227-0.35-0.557-0.524-0.978-0.524c-0.471,0-0.772,0.229-0.91,0.674
				c-0.139,0.448-0.21,0.938-0.21,1.466c0,0.017,0,0.034,0,0.038c0,0.01,0,0.016,0,0.03H141.535z"/>
			<path fill="#2D3C64" d="M146.362,60.209h3.351v15.38h-3.351V60.209z"/>
			<path fill="#2D3C64" d="M152.106,60.209h3.35v15.38h-3.35V60.209z"/>
			<path fill="#2D3C64" d="M158.007,60.209h3.35v2.735h-3.35V60.209z M158.007,64.058h3.35v11.531h-3.35V64.058z"/>
			<path fill="#2D3C64" d="M167.79,74.743c-0.341,0.21-0.694,0.358-1.059,0.432c-0.121,0.031-0.243,0.054-0.364,0.074
				c-0.122,0.011-0.234,0.018-0.342,0.018c-0.685,0-1.3-0.25-1.846-0.749c-0.549-0.501-0.819-1.305-0.819-2.417v-5.281
				c0-1.009,0.297-1.763,0.888-2.273c0.594-0.502,1.239-0.761,1.939-0.761c0.088,0,0.18,0.009,0.27,0.012
				c0.093,0.011,0.184,0.026,0.275,0.059c0.395,0.071,0.771,0.236,1.13,0.49c0.355,0.25,0.615,0.583,0.78,0.986v-1.273h3.169v11.689
				c0,1.241-0.355,2.132-1.072,2.665c-0.713,0.528-1.502,0.842-2.367,0.933c-0.108,0.018-0.221,0.031-0.342,0.034
				c-0.12,0.007-0.236,0.011-0.344,0.011c-1.379,0-2.454-0.257-3.222-0.776c-0.764-0.512-1.188-1.371-1.263-2.568l3.324,0.021
				c0,0.013,0,0.029,0,0.046c-0.011,0.014-0.02,0.033-0.02,0.047c0,0.317,0.098,0.558,0.297,0.716
				c0.199,0.162,0.423,0.239,0.681,0.239c0.047,0,0.086,0,0.126,0c0.037,0,0.076-0.011,0.125-0.023
				c0.227-0.047,0.437-0.139,0.627-0.284c0.187-0.142,0.28-0.343,0.28-0.606v-2.204C168.415,74.282,168.128,74.528,167.79,74.743z
				 M166.525,71.303c0,0.399,0.091,0.713,0.277,0.958c0.179,0.239,0.386,0.386,0.611,0.433c0.019,0,0.036,0,0.06,0
				c0.021,0,0.041,0,0.057,0c0.031,0,0.057,0,0.091-0.014c0.029-0.004,0.064-0.014,0.113-0.014c0.182-0.061,0.35-0.202,0.51-0.429
				c0.162-0.229,0.239-0.535,0.239-0.935v-3.555c0-0.349-0.077-0.618-0.239-0.817c-0.16-0.197-0.328-0.327-0.51-0.39
				c-0.049,0-0.084-0.004-0.113-0.013c-0.035-0.007-0.061-0.012-0.091-0.012c-0.017,0-0.037,0-0.057,0c-0.024,0-0.042,0-0.06,0
				c-0.225,0.05-0.432,0.178-0.611,0.392c-0.186,0.213-0.277,0.491-0.277,0.84V71.303z"/>
			<path fill="#2D3C64" d="M176.417,72.1c0,0.451,0.104,0.815,0.327,1.086c0.222,0.263,0.462,0.404,0.714,0.418
				c0.02,0,0.027,0,0.037,0s0.021,0,0.038,0c0.014,0,0.02,0,0.033,0c0.007,0,0.014,0,0.034,0c0.27-0.014,0.52-0.162,0.748-0.444
				c0.229-0.281,0.344-0.688,0.344-1.218v-0.477h3.169v0.432c0,1.229-0.344,2.199-1.032,2.914c-0.681,0.715-1.662,1.072-2.934,1.072
				c-1.382,0-2.501-0.311-3.364-0.924c-0.856-0.613-1.281-1.511-1.281-2.698v-4.826c0-1.371,0.467-2.329,1.409-2.873
				c0.944-0.547,2.02-0.823,3.236-0.823c1.271,0,2.253,0.312,2.934,0.922c0.688,0.618,1.032,1.493,1.032,2.639v2.998h-5.445V72.1z
				 M178.847,68.225v-0.432c0-0.485-0.111-0.899-0.337-1.252c-0.229-0.35-0.553-0.524-0.978-0.524c-0.472,0-0.776,0.229-0.917,0.674
				c-0.135,0.448-0.199,0.938-0.199,1.466c0,0.017,0,0.034,0,0.038c0,0.01,0,0.016,0,0.03H178.847z"/>
			<path fill="#2D3C64" d="M183.608,64.058h3.012v1.64c0.198-0.528,0.492-0.943,0.89-1.238c0.395-0.298,0.81-0.483,1.251-0.562
				c0.091-0.015,0.182-0.026,0.263-0.031c0.087-0.003,0.172-0.012,0.263-0.012c0.668,0,1.268,0.207,1.811,0.628
				c0.54,0.415,0.81,0.981,0.81,1.693v9.413h-3.166V67.59c0-0.303-0.081-0.545-0.243-0.73c-0.155-0.183-0.33-0.293-0.513-0.343
				c-0.041,0-0.081-0.007-0.115-0.01c-0.03-0.006-0.061-0.01-0.088-0.01c-0.017,0-0.027,0-0.034,0c-0.006,0-0.02,0-0.037,0
				c-0.199,0.013-0.374,0.106-0.532,0.282c-0.162,0.176-0.239,0.444-0.239,0.811v7.999h-3.332V64.058z"/>
			<path fill="#2D3C64" d="M194.3,60.892h3.321v3.166h1.642v2.439h-1.642v6.081c0,0.242,0.067,0.432,0.196,0.561
				c0.128,0.127,0.317,0.195,0.556,0.195c0.064,0,0.138-0.01,0.219-0.027c0.081-0.014,0.168-0.027,0.26-0.044
				c0.03,0,0.064-0.004,0.091-0.011c0.026-0.007,0.061-0.014,0.095-0.014c0.047,0,0.084-0.003,0.121-0.014
				c0.041-0.003,0.074-0.007,0.104-0.007v2.371h-3.072c-0.641,0-1.119-0.249-1.43-0.738c-0.31-0.499-0.461-1.093-0.461-1.794v-6.56
				h-1.278v-2.439h1.278V60.892z"/>
		</g>
		<g>
			<path fill="#2D3C64" d="M207.292,64.219c0-1.516,0.48-2.592,1.455-3.224c0.971-0.633,2.149-0.944,3.532-0.944
				c0.184,0,0.365,0.008,0.559,0.023c0.191,0.016,0.373,0.031,0.556,0.045c0.971,0.14,1.857,0.506,2.651,1.11
				c0.801,0.611,1.199,1.611,1.199,2.989v6.768c0,1.497-0.398,2.697-1.199,3.577c-0.794,0.881-2.104,1.319-3.93,1.319
				c-1.851,0-3.119-0.499-3.799-1.491c-0.688-0.998-1.024-2.131-1.024-3.405V64.219z M210.956,71.783
				c0,0.422,0.133,0.749,0.402,0.971c0.262,0.221,0.557,0.327,0.877,0.327c0.013,0,0.022,0,0.03,0c0.01,0,0.015,0,0.036,0
				c0.3-0.017,0.584-0.131,0.844-0.344c0.255-0.212,0.387-0.532,0.387-0.954v-7.725c0-0.427-0.132-0.741-0.387-0.956
				c-0.26-0.214-0.544-0.329-0.844-0.341c-0.021,0-0.026,0-0.036,0c-0.008,0-0.018,0-0.03,0c-0.32,0-0.615,0.107-0.877,0.315
				c-0.27,0.218-0.402,0.538-0.402,0.981V71.783z"/>
			<path fill="#2D3C64" d="M218.749,64.058h3.007v1.481c0.258-0.427,0.553-0.769,0.887-1.024c0.334-0.261,0.678-0.441,1.028-0.548
				c0.122-0.048,0.24-0.074,0.365-0.092c0.118-0.012,0.232-0.021,0.336-0.021c0.719,0,1.363,0.307,1.954,0.916
				c0.579,0.621,0.872,1.506,0.872,2.664v5.302c0,0.84-0.283,1.582-0.844,2.223c-0.559,0.647-1.219,0.971-1.982,0.971
				c-0.178,0-0.371-0.021-0.565-0.067c-0.199-0.048-0.388-0.122-0.565-0.229c-0.203-0.094-0.399-0.223-0.599-0.385
				c-0.199-0.175-0.387-0.377-0.57-0.619v4.781h-3.323V64.058z M222.072,71.942c0,0.38,0.09,0.694,0.264,0.946
				c0.174,0.251,0.364,0.412,0.58,0.492c0.031,0,0.068,0.004,0.101,0.007c0.041,0.007,0.075,0.014,0.104,0.014
				c0.018,0,0.035,0,0.058,0c0.023,0,0.041,0,0.063,0c0.194-0.047,0.376-0.188,0.544-0.435c0.162-0.246,0.251-0.583,0.251-1.024
				v-4.035c0-0.394-0.081-0.696-0.243-0.906c-0.158-0.211-0.33-0.351-0.514-0.41c-0.038,0-0.079-0.005-0.109-0.019
				c-0.031-0.003-0.059-0.005-0.091-0.005c-0.014,0-0.035,0-0.063,0c-0.019,0-0.04,0-0.054,0c-0.228,0.046-0.431,0.183-0.615,0.41
				c-0.184,0.229-0.275,0.536-0.275,0.93V71.942z"/>
			<path fill="#2D3C64" d="M231.797,72.1c0,0.451,0.113,0.815,0.338,1.086c0.215,0.263,0.457,0.404,0.717,0.418
				c0.002,0,0.016,0,0.033,0c0.004,0,0.014,0,0.023,0c0.025,0,0.031,0,0.041,0c0.012,0,0.018,0,0.035,0
				c0.27-0.014,0.524-0.162,0.754-0.444c0.227-0.281,0.338-0.688,0.338-1.218v-0.477h3.168v0.432c0,1.229-0.34,2.199-1.024,2.914
				c-0.684,0.715-1.663,1.072-2.937,1.072c-1.387,0-2.504-0.311-3.361-0.924s-1.288-1.511-1.288-2.698v-4.826
				c0-1.371,0.471-2.329,1.413-2.873c0.94-0.547,2.02-0.823,3.236-0.823c1.273,0,2.253,0.312,2.937,0.922
				c0.685,0.618,1.024,1.493,1.024,2.639v2.998h-5.447V72.1z M234.241,68.225v-0.432c0-0.485-0.117-0.899-0.348-1.252
				c-0.222-0.35-0.552-0.524-0.984-0.524c-0.457,0-0.768,0.229-0.904,0.674c-0.133,0.448-0.207,0.938-0.207,1.466
				c0,0.017,0,0.034,0,0.038c0,0.01,0,0.016,0,0.03H234.241z"/>
			<path fill="#2D3C64" d="M238.997,64.058h3.007v1.64c0.199-0.528,0.494-0.943,0.891-1.238c0.394-0.298,0.809-0.483,1.256-0.562
				c0.09-0.015,0.173-0.026,0.262-0.031c0.08-0.003,0.171-0.012,0.258-0.012c0.673,0,1.274,0.207,1.819,0.628
				c0.529,0.415,0.805,0.981,0.805,1.693v9.413h-3.162V67.59c0-0.303-0.089-0.545-0.239-0.73c-0.17-0.183-0.338-0.293-0.52-0.343
				c-0.051,0-0.085-0.007-0.115-0.01c-0.023-0.006-0.061-0.01-0.092-0.01c-0.014,0-0.023,0-0.033,0c-0.008,0-0.021,0-0.033,0
				c-0.199,0.013-0.377,0.106-0.539,0.282c-0.152,0.176-0.236,0.444-0.236,0.811v7.999h-3.327V64.058z"/>
		</g>
		<g>
			<path fill="#2D3C64" d="M258.165,63.417h-2.854v-2.998h9.255v2.998h-2.69v12.173h-3.711V63.417z"/>
			<path fill="#2D3C64" d="M268.844,72.1c0,0.451,0.116,0.815,0.332,1.086c0.223,0.263,0.466,0.404,0.715,0.418
				c0.018,0,0.036,0,0.04,0c0.01,0,0.02,0,0.037,0c0.014,0,0.02,0,0.031,0c0.006,0,0.023,0,0.036,0
				c0.267-0.014,0.52-0.162,0.749-0.444c0.227-0.281,0.344-0.688,0.344-1.218v-0.477h3.159v0.432c0,1.229-0.334,2.199-1.021,2.914
				s-1.659,1.072-2.933,1.072c-1.387,0-2.507-0.311-3.36-0.924c-0.862-0.613-1.291-1.511-1.291-2.698v-4.826
				c0-1.371,0.469-2.329,1.41-2.873c0.951-0.547,2.019-0.823,3.241-0.823c1.273,0,2.245,0.312,2.933,0.922
				c0.688,0.618,1.021,1.493,1.021,2.639v2.998h-5.443V72.1z M271.291,68.225v-0.432c0-0.485-0.121-0.899-0.348-1.252
				c-0.22-0.35-0.55-0.524-0.975-0.524c-0.475,0-0.782,0.229-0.911,0.674c-0.137,0.448-0.213,0.938-0.213,1.466
				c0,0.017,0,0.034,0,0.038c0,0.01,0,0.016,0,0.03H271.291z"/>
			<path fill="#2D3C64" d="M278.259,72.1c0.016,0.533,0.119,0.931,0.327,1.193c0.202,0.27,0.429,0.438,0.668,0.492
				c0.06,0,0.091,0.004,0.128,0.011c0.04,0.007,0.074,0.017,0.102,0.017c0.303,0,0.589-0.116,0.836-0.337
				c0.255-0.217,0.374-0.466,0.374-0.739c0-0.272-0.115-0.502-0.351-0.694c-0.239-0.186-0.543-0.374-0.9-0.557
				c-0.22-0.087-0.438-0.188-0.676-0.296c-0.23-0.102-0.467-0.217-0.717-0.345c-0.655-0.332-1.254-0.771-1.808-1.319
				c-0.557-0.545-0.836-1.346-0.836-2.391c0-1.142,0.357-1.966,1.079-2.475c0.705-0.506,1.5-0.797,2.363-0.876
				c0.111-0.017,0.22-0.025,0.344-0.034c0.121-0.01,0.233-0.012,0.342-0.012c0.986,0,1.88,0.319,2.673,0.963
				c0.792,0.63,1.199,1.508,1.199,2.614v0.274h-2.869v-0.343c0-0.395-0.094-0.694-0.289-0.9c-0.186-0.202-0.401-0.32-0.627-0.354
				c-0.033-0.016-0.059-0.023-0.081-0.023c-0.016,0-0.051,0-0.082,0c-0.036,0-0.082,0.008-0.121,0.017
				c-0.037,0.007-0.073,0.007-0.106,0.007c-0.206,0.063-0.396,0.172-0.571,0.332c-0.178,0.162-0.266,0.343-0.266,0.562l0.025,0.09
				c0.027,0.304,0.176,0.552,0.43,0.748c0.252,0.197,0.573,0.38,0.934,0.547c0.182,0.094,0.365,0.179,0.561,0.267
				c0.188,0.08,0.384,0.167,0.583,0.26c0.573,0.289,1.119,0.664,1.611,1.14c0.511,0.47,0.792,1.138,0.869,2.004v0.428
				c0,0.931-0.313,1.747-0.912,2.455c-0.611,0.708-1.699,1.059-3.28,1.059c-1.34,0-2.313-0.351-2.908-1.059
				c-0.599-0.708-0.899-1.612-0.899-2.725H278.259z"/>
			<path fill="#2D3C64" d="M285.776,60.892h3.33v3.166h1.632v2.439h-1.632v6.081c0,0.242,0.055,0.432,0.186,0.561
				c0.139,0.127,0.32,0.195,0.565,0.195c0.058,0,0.134-0.01,0.214-0.027c0.088-0.014,0.173-0.027,0.264-0.044
				c0.026,0,0.056-0.004,0.096-0.011c0.027-0.007,0.055-0.014,0.081-0.014c0.045,0,0.095-0.003,0.126-0.014
				c0.036-0.003,0.077-0.007,0.101-0.007v2.371h-3.072c-0.641,0-1.107-0.249-1.424-0.738c-0.315-0.499-0.466-1.093-0.466-1.794
				v-6.56h-1.269v-2.439h1.269V60.892z"/>
		</g>
		<g>
			<path fill="#2D3C64" d="M298.763,60.418h4.99c1.189,0,2.263,0.265,3.221,0.805c0.953,0.538,1.433,1.487,1.433,2.835
				c0,0.87-0.146,1.543-0.433,2.026c-0.272,0.487-0.588,0.838-0.92,1.051c-0.135,0.075-0.27,0.139-0.408,0.193
				c-0.136,0.052-0.258,0.086-0.361,0.106c0.799,0.392,1.386,0.838,1.743,1.353c0.361,0.505,0.533,1.289,0.533,2.354
				c0,1.43-0.357,2.526-1.075,3.298c-0.709,0.762-1.906,1.149-3.57,1.149h-5.152V60.418z M304.151,65.97
				c0.357-0.245,0.537-0.772,0.537-1.591c0-0.396-0.106-0.709-0.324-0.937c-0.23-0.225-0.537-0.341-0.928-0.341h-1.168v3.236
				C303.172,66.338,303.803,66.214,304.151,65.97z M304.309,72.599c0.47-0.192,0.691-0.729,0.691-1.612
				c0-0.82-0.249-1.335-0.739-1.541c-0.508-0.2-1.171-0.342-1.993-0.419v3.868C303.172,72.895,303.848,72.801,304.309,72.599z"/>
			<path fill="#2D3C64" d="M313.23,72.1c0,0.451,0.109,0.815,0.334,1.086c0.217,0.263,0.462,0.404,0.713,0.418
				c0.02,0,0.033,0,0.037,0c0.006,0,0.014,0,0.029,0c0.017,0,0.034,0,0.038,0c0.013,0,0.015,0,0.04,0
				c0.267-0.014,0.516-0.162,0.747-0.444c0.23-0.281,0.342-0.688,0.342-1.218v-0.477h3.169v0.432c0,1.229-0.344,2.199-1.025,2.914
				c-0.687,0.715-1.665,1.072-2.942,1.072c-1.38,0-2.502-0.311-3.359-0.924c-0.855-0.613-1.283-1.511-1.283-2.698v-4.826
				c0-1.371,0.461-2.329,1.409-2.873c0.939-0.547,2.027-0.823,3.233-0.823c1.277,0,2.256,0.312,2.942,0.922
				c0.682,0.618,1.025,1.493,1.025,2.639v2.998h-5.449V72.1z M315.665,68.225v-0.432c0-0.485-0.111-0.899-0.337-1.252
				c-0.229-0.35-0.561-0.524-0.984-0.524c-0.466,0-0.773,0.229-0.906,0.674c-0.139,0.448-0.207,0.938-0.207,1.466
				c0,0.017,0,0.034,0,0.038c0,0.01,0,0.016,0,0.03H315.665z"/>
			<path fill="#2D3C64" d="M324.762,75.221c-0.408,0.273-0.805,0.445-1.211,0.526c-0.104,0.031-0.209,0.048-0.311,0.059
				c-0.093,0.003-0.195,0.009-0.307,0.009c-0.705,0-1.315-0.293-1.854-0.876c-0.54-0.587-0.81-1.531-0.81-2.839v-5.281
				c0-1.063,0.281-1.855,0.813-2.359c0.552-0.508,1.145-0.765,1.811-0.765c0.039,0,0.093,0,0.141,0c0.055,0,0.112,0.007,0.172,0.022
				c0.442,0.042,0.871,0.207,1.27,0.49c0.398,0.28,0.706,0.659,0.922,1.124v-5.122h3.161v15.38h-2.845v-1.438
				C325.47,74.588,325.154,74.946,324.762,75.221z M323.444,71.783c0,0.392,0.084,0.715,0.266,0.954
				c0.189,0.247,0.385,0.389,0.615,0.436c0.016,0,0.029,0,0.053,0c0.027,0,0.051,0,0.059,0c0.029,0,0.063-0.007,0.094-0.013
				c0.033-0.004,0.074-0.007,0.115-0.007c0.181-0.062,0.347-0.21,0.509-0.439c0.158-0.229,0.245-0.539,0.245-0.931v-4.034
				c0-0.349-0.087-0.618-0.245-0.817c-0.162-0.197-0.328-0.327-0.509-0.39c-0.041,0-0.082-0.004-0.115-0.013
				c-0.03-0.007-0.064-0.012-0.094-0.012c-0.008,0-0.031,0-0.059,0c-0.023,0-0.037,0-0.053,0c-0.23,0.05-0.426,0.178-0.615,0.392
				c-0.182,0.213-0.266,0.491-0.266,0.84V71.783z"/>
		</g>
		<g>
			<path fill="#2D3C64" d="M337.866,66.498h-1.279v-2.278h1.279v-1.274c0-0.883,0.258-1.561,0.781-2.028
				c0.523-0.467,1.272-0.707,2.229-0.707h1.794v2.414c-0.464,0-0.831,0.034-1.093,0.102c-0.258,0.068-0.393,0.302-0.393,0.691v0.803
				h1.485v2.278h-1.485v9.092h-3.319V66.498z"/>
			<path fill="#2D3C64" d="M344.244,66.977c0-0.99,0.392-1.776,1.173-2.359c0.783-0.584,1.784-0.879,2.991-0.879
				c1.525,0,2.589,0.335,3.202,1.008c0.611,0.666,0.93,1.407,0.93,2.23v5.602c0,1.113-0.352,1.938-1.053,2.481
				c-0.703,0.553-1.724,0.823-3.079,0.823c-1.51,0-2.589-0.314-3.212-0.944c-0.642-0.63-0.952-1.416-0.952-2.36V66.977z
				 M347.414,72.417c0,0.351,0.087,0.637,0.267,0.856c0.164,0.22,0.364,0.365,0.569,0.421c0.031,0,0.067,0.003,0.104,0.01
				c0.041,0.007,0.072,0.018,0.104,0.018c0.014,0,0.033,0,0.055,0s0.049,0,0.068,0c0.189-0.029,0.375-0.145,0.537-0.334
				c0.172-0.188,0.248-0.458,0.248-0.809v-5.144c0-0.353-0.076-0.625-0.248-0.822c-0.162-0.201-0.348-0.322-0.537-0.366
				c-0.02,0-0.047,0-0.068,0s-0.041,0-0.055,0c-0.031,0-0.063,0.002-0.104,0.011c-0.036,0.008-0.072,0.014-0.104,0.014
				c-0.205,0.059-0.405,0.193-0.569,0.397c-0.18,0.2-0.267,0.462-0.267,0.767V72.417z"/>
			<path fill="#2D3C64" d="M354.292,64.058h3.004v1.799c0.39-0.894,0.809-1.446,1.237-1.649c0.441-0.201,0.883-0.31,1.359-0.31
				v3.537c-0.895,0-1.494,0.063-1.807,0.191c-0.325,0.131-0.466,0.592-0.466,1.4v6.563h-3.328V64.058z"/>
		</g>
		<g>
			<path fill="#2D3C64" d="M367.917,60.418h5.129l1.758,9.087l1.894-9.087h4.968v15.171h-3.329l0.313-11.691l-2.589,11.691h-2.536
				l-2.592-11.691l0.471,11.691h-3.486V60.418z"/>
			<path fill="#2D3C64" d="M388.323,75.404c-0.421,0.229-0.863,0.385-1.332,0.459c-0.082,0-0.158,0-0.246,0.007
				c-0.074,0.01-0.148,0.014-0.232,0.014c-0.014,0-0.041,0-0.059,0c-0.027,0-0.051,0-0.077,0c-0.731-0.027-1.399-0.294-2.006-0.796
				c-0.604-0.506-0.913-1.284-0.913-2.351c0-1.285,0.218-2.155,0.664-2.6c0.442-0.436,1.065-0.781,1.894-1.041
				c0.298-0.106,0.622-0.213,0.976-0.322c0.352-0.104,0.727-0.235,1.115-0.387c0.244-0.09,0.433-0.207,0.564-0.342
				c0.137-0.139,0.245-0.279,0.303-0.432c0.023-0.063,0.049-0.121,0.063-0.179c0.023-0.066,0.031-0.127,0.031-0.188
				c0-0.012,0-0.028,0-0.037c0-0.005,0-0.012,0-0.027c-0.023-0.243-0.118-0.474-0.298-0.686c-0.185-0.214-0.406-0.321-0.664-0.321
				c-0.578,0-0.971,0.134-1.176,0.396c-0.202,0.268-0.307,0.716-0.307,1.335h-3.166c0-1.438,0.376-2.466,1.14-3.086
				c0.762-0.613,1.806-0.923,3.147-0.923c1.634,0,2.765,0.271,3.388,0.81c0.629,0.541,0.988,1.135,1.07,1.79
				c0,0.074,0.01,0.152,0.018,0.236c0.01,0.089,0.01,0.167,0.01,0.243v6.562c0,0.443,0.014,0.75,0.037,0.929
				c0.034,0.183,0.067,0.344,0.102,0.479c0.027,0.095,0.057,0.186,0.083,0.275c0.035,0.093,0.068,0.217,0.103,0.368h-3.176
				l-0.158-1.122C389.037,74.865,388.738,75.174,388.323,75.404z M388.62,70.202c-0.145,0.064-0.283,0.137-0.418,0.212
				c-0.445,0.212-0.822,0.449-1.127,0.708c-0.32,0.261-0.465,0.624-0.465,1.094c0,0.013,0,0.026,0,0.046
				c0,0.014,0.006,0.027,0.014,0.04c0,0.021,0,0.034,0,0.048c0,0.018,0,0.04,0,0.067c0.014,0.291,0.121,0.53,0.336,0.723
				c0.207,0.188,0.42,0.303,0.645,0.33c0.027,0.014,0.061,0.023,0.088,0.023c0.039,0,0.064,0,0.092,0
				c0.033,0,0.074-0.01,0.101-0.017c0.044-0.007,0.081-0.007,0.108-0.007c0.271-0.062,0.516-0.233,0.737-0.513
				c0.229-0.28,0.338-0.675,0.338-1.174v-1.801C388.916,70.057,388.76,70.13,388.62,70.202z"/>
			<path fill="#2D3C64" d="M394.627,60.892h3.321v3.166h1.643v2.439h-1.643v6.081c0,0.242,0.066,0.432,0.186,0.561
				c0.135,0.127,0.328,0.195,0.566,0.195c0.064,0,0.124-0.01,0.219-0.027c0.085-0.014,0.166-0.027,0.253-0.044
				c0.035,0,0.067-0.004,0.095-0.011c0.035-0.007,0.062-0.014,0.091-0.014c0.044,0,0.091-0.003,0.125-0.014
				c0.041-0.003,0.073-0.007,0.108-0.007v2.371h-3.085c-0.627,0-1.106-0.249-1.417-0.738c-0.313-0.499-0.462-1.093-0.462-1.794
				v-6.56h-1.285v-2.439h1.285V60.892z"/>
			<path fill="#2D3C64" d="M404.005,72.1c0,0.451,0.111,0.815,0.338,1.086c0.221,0.263,0.457,0.404,0.713,0.418
				c0.014,0,0.027,0,0.033,0c0.01,0,0.018,0,0.031,0c0.01,0,0.027,0,0.033,0c0.012,0,0.027,0,0.04,0
				c0.271-0.014,0.514-0.162,0.757-0.444c0.222-0.281,0.33-0.688,0.33-1.218v-0.477h3.172v0.432c0,1.229-0.343,2.199-1.024,2.914
				s-1.667,1.072-2.946,1.072c-1.379,0-2.497-0.311-3.356-0.924c-0.855-0.613-1.281-1.511-1.281-2.698v-4.826
				c0-1.371,0.473-2.329,1.4-2.873c0.947-0.547,2.032-0.823,3.237-0.823c1.279,0,2.265,0.312,2.946,0.922
				c0.682,0.618,1.024,1.493,1.024,2.639v2.998h-5.447V72.1z M406.445,68.225v-0.432c0-0.485-0.113-0.899-0.354-1.252
				c-0.22-0.35-0.537-0.524-0.971-0.524c-0.461,0-0.777,0.229-0.899,0.674c-0.146,0.448-0.216,0.938-0.216,1.466
				c0,0.017,0,0.034,0,0.038c0,0.01,0,0.016,0,0.03H406.445z"/>
			<path fill="#2D3C64" d="M411.209,64.058h3v1.799c0.4-0.894,0.811-1.446,1.246-1.649c0.428-0.201,0.886-0.31,1.351-0.31v3.537
				c-0.894,0-1.499,0.063-1.813,0.191c-0.306,0.131-0.456,0.592-0.456,1.4v6.563h-3.328V64.058z"/>
			<path fill="#2D3C64" d="M418.607,60.209h3.345v2.735h-3.345V60.209z M418.607,64.058h3.345v11.531h-3.345V64.058z"/>
			<path fill="#2D3C64" d="M428.503,75.404c-0.411,0.229-0.856,0.385-1.328,0.459c-0.077,0-0.158,0-0.239,0.007
				c-0.081,0.01-0.166,0.014-0.239,0.014c-0.018,0-0.035,0-0.059,0c-0.022,0-0.043,0-0.08,0c-0.725-0.027-1.396-0.294-2.006-0.796
				c-0.597-0.506-0.911-1.284-0.911-2.351c0-1.285,0.224-2.155,0.664-2.6c0.441-0.436,1.073-0.781,1.886-1.041
				c0.309-0.106,0.633-0.213,0.984-0.322c0.34-0.104,0.715-0.235,1.112-0.387c0.249-0.09,0.441-0.207,0.569-0.342
				c0.136-0.139,0.243-0.279,0.304-0.432c0.021-0.063,0.044-0.121,0.061-0.179c0.018-0.066,0.023-0.127,0.023-0.188
				c0-0.012,0-0.028,0-0.037c0-0.005,0-0.012,0-0.027c-0.01-0.243-0.104-0.474-0.293-0.686c-0.178-0.214-0.397-0.321-0.664-0.321
				c-0.577,0-0.964,0.134-1.166,0.396c-0.21,0.268-0.315,0.716-0.315,1.335h-3.165c0-1.438,0.382-2.466,1.141-3.086
				c0.765-0.613,1.813-0.923,3.139-0.923c1.645,0,2.778,0.271,3.395,0.81c0.623,0.541,0.984,1.135,1.075,1.79
				c0,0.074,0,0.152,0.008,0.236c0.01,0.089,0.018,0.167,0.018,0.243v6.562c0,0.443,0.016,0.75,0.042,0.929
				c0.03,0.183,0.058,0.344,0.099,0.479c0.031,0.095,0.051,0.186,0.087,0.275c0.024,0.093,0.054,0.217,0.093,0.368h-3.171
				l-0.158-1.122C429.221,74.865,428.918,75.174,428.503,75.404z M428.811,70.202c-0.152,0.064-0.29,0.137-0.433,0.212
				c-0.431,0.212-0.813,0.449-1.129,0.708c-0.304,0.261-0.459,0.624-0.459,1.094c0,0.013,0,0.026,0,0.046
				c0,0.014,0,0.027,0.016,0.04c0,0.021,0,0.034,0,0.048c0,0.018,0,0.04,0,0.067c0.018,0.291,0.13,0.53,0.334,0.723
				c0.211,0.188,0.426,0.303,0.649,0.33c0.028,0.014,0.06,0.023,0.091,0.023c0.026,0,0.067,0,0.097,0
				c0.026,0,0.054-0.01,0.102-0.017c0.037-0.007,0.068-0.007,0.101-0.007c0.276-0.062,0.52-0.233,0.735-0.513
				c0.227-0.28,0.33-0.675,0.33-1.174v-1.801C429.1,70.057,428.946,70.13,428.811,70.202z"/>
			<path fill="#2D3C64" d="M434.24,60.209h3.348v15.38h-3.348V60.209z"/>
			<path fill="#2D3C64" d="M442.125,72.1c0.01,0.533,0.12,0.931,0.33,1.193c0.199,0.27,0.426,0.438,0.668,0.492
				c0.043,0,0.088,0.004,0.128,0.011c0.03,0.007,0.071,0.017,0.099,0.017c0.303,0,0.588-0.116,0.832-0.337
				c0.245-0.217,0.371-0.466,0.371-0.739c0-0.272-0.114-0.502-0.348-0.694c-0.24-0.186-0.537-0.374-0.9-0.557
				c-0.216-0.087-0.434-0.188-0.674-0.296c-0.242-0.102-0.473-0.217-0.722-0.345c-0.648-0.332-1.255-0.771-1.805-1.319
				c-0.557-0.545-0.828-1.346-0.828-2.391c0-1.142,0.357-1.966,1.064-2.475c0.715-0.506,1.507-0.797,2.37-0.876
				c0.102-0.017,0.223-0.025,0.342-0.034c0.117-0.01,0.238-0.012,0.334-0.012c0.99,0,1.894,0.319,2.688,0.963
				c0.793,0.63,1.188,1.508,1.188,2.614v0.274h-2.872v-0.343c0-0.395-0.096-0.694-0.287-0.9c-0.184-0.202-0.395-0.32-0.613-0.354
				c-0.035-0.016-0.063-0.023-0.086-0.023c-0.021,0-0.045,0-0.076,0c-0.047,0-0.085,0.008-0.127,0.017
				c-0.035,0.007-0.072,0.007-0.104,0.007c-0.211,0.063-0.406,0.172-0.586,0.332c-0.168,0.162-0.259,0.343-0.259,0.562l0.02,0.09
				c0.034,0.304,0.183,0.552,0.438,0.748c0.256,0.197,0.57,0.38,0.932,0.547c0.186,0.094,0.367,0.179,0.563,0.267
				c0.186,0.08,0.378,0.167,0.573,0.26c0.591,0.289,1.119,0.664,1.629,1.14c0.494,0.47,0.782,1.138,0.855,2.004v0.428
				c0,0.931-0.299,1.747-0.907,2.455c-0.606,0.708-1.695,1.059-3.28,1.059c-1.332,0-2.305-0.351-2.904-1.059
				c-0.598-0.708-0.895-1.612-0.895-2.725H442.125z"/>
		</g>
		<g>
			<path fill="#2D3C64" d="M115.494,86.237h-2.844v-3.008h9.247v3.008h-2.688v12.164h-3.716V86.237z"/>
			<path fill="#2D3C64" d="M123.333,86.87h3.006v1.808c0.395-0.894,0.812-1.449,1.241-1.655c0.433-0.206,0.886-0.307,1.354-0.307
				v3.533c-0.894,0-1.498,0.061-1.809,0.189c-0.312,0.131-0.465,0.6-0.465,1.404v6.559h-3.326V86.87z"/>
			<path fill="#2D3C64" d="M130.735,83.026h3.35v2.732h-3.35V83.026z M130.735,86.87h3.35v11.531h-3.35V86.87z"/>
			<path fill="#2D3C64" d="M136.092,83.026h3.325v4.806c0.153-0.135,0.313-0.267,0.478-0.375c0.165-0.114,0.327-0.219,0.479-0.31
				c0.274-0.148,0.548-0.26,0.82-0.331c0.278-0.066,0.534-0.101,0.775-0.101c0.759,0,1.402,0.307,1.937,0.92
				c0.531,0.616,0.798,1.483,0.798,2.613v5.305c0,0.865-0.299,1.621-0.889,2.272c-0.591,0.637-1.29,0.967-2.095,0.967
				c-0.183,0-0.376-0.027-0.57-0.074c-0.198-0.039-0.396-0.114-0.594-0.202c-0.23-0.111-0.451-0.25-0.67-0.425
				c-0.219-0.176-0.432-0.384-0.627-0.647v0.957h-3.165V83.026z M139.417,94.753c0,0.38,0.086,0.7,0.261,0.951
				c0.176,0.248,0.368,0.411,0.584,0.488c0.028,0,0.059,0,0.103,0.011c0.037,0.007,0.069,0.014,0.101,0.014c0.015,0,0.032,0,0.056,0
				c0.022,0,0.042,0,0.057,0c0.196-0.048,0.378-0.189,0.546-0.433c0.168-0.249,0.251-0.586,0.251-1.031V90.72
				c0-0.344-0.081-0.619-0.24-0.813c-0.156-0.199-0.33-0.333-0.512-0.387c-0.045,0-0.083-0.011-0.118-0.014
				c-0.025-0.014-0.055-0.014-0.086-0.014c-0.017,0-0.038,0-0.056,0c-0.027,0-0.046,0-0.057,0c-0.229,0.048-0.434,0.175-0.618,0.391
				c-0.184,0.209-0.273,0.492-0.273,0.836V94.753z"/>
			<path fill="#2D3C64" d="M146.296,89.793c0-0.991,0.392-1.776,1.172-2.36c0.782-0.583,1.782-0.873,2.999-0.873
				c1.517,0,2.583,0.327,3.198,0.998c0.615,0.672,0.922,1.409,0.922,2.235v5.604c0,1.108-0.349,1.938-1.048,2.483
				c-0.698,0.547-1.721,0.816-3.072,0.816c-1.521,0-2.596-0.313-3.225-0.943c-0.629-0.634-0.946-1.417-0.946-2.356V89.793z
				 M149.462,95.236c0,0.354,0.088,0.637,0.265,0.853c0.17,0.223,0.366,0.361,0.58,0.425c0.027,0,0.063,0,0.102,0.007
				c0.041,0.014,0.07,0.014,0.101,0.014c0.017,0,0.034,0,0.059,0c0.022,0,0.04,0,0.057,0c0.197-0.027,0.379-0.138,0.548-0.33
				c0.163-0.189,0.247-0.458,0.247-0.806v-5.149c0-0.351-0.084-0.624-0.247-0.822c-0.169-0.196-0.351-0.317-0.548-0.364
				c-0.017,0-0.035,0-0.057,0c-0.025,0-0.042,0-0.059,0c-0.031,0-0.061,0.003-0.101,0.01c-0.039,0.011-0.074,0.018-0.102,0.018
				c-0.214,0.054-0.41,0.188-0.58,0.391c-0.177,0.206-0.265,0.462-0.265,0.769V95.236z"/>
			<path fill="#2D3C64" d="M156.41,83.026h3.35v15.375h-3.35V83.026z"/>
			<path fill="#2D3C64" d="M162.082,89.793c0-0.991,0.393-1.776,1.177-2.36c0.782-0.583,1.779-0.873,2.996-0.873
				c1.518,0,2.583,0.327,3.2,0.998c0.615,0.672,0.921,1.409,0.921,2.235v5.604c0,1.108-0.35,1.938-1.05,2.483
				c-0.694,0.547-1.721,0.816-3.071,0.816c-1.521,0-2.594-0.313-3.222-0.943c-0.632-0.634-0.951-1.417-0.951-2.356V89.793z
				 M165.251,95.236c0,0.354,0.084,0.637,0.261,0.853c0.172,0.223,0.366,0.361,0.58,0.425c0.032,0,0.065,0,0.104,0.007
				c0.035,0.014,0.067,0.014,0.103,0.014c0.016,0,0.032,0,0.058,0c0.021,0,0.035,0,0.057,0c0.196-0.027,0.376-0.138,0.544-0.33
				c0.167-0.189,0.253-0.458,0.253-0.806v-5.149c0-0.351-0.086-0.624-0.253-0.822c-0.168-0.196-0.349-0.317-0.544-0.364
				c-0.022,0-0.036,0-0.057,0c-0.025,0-0.042,0-0.058,0c-0.035,0-0.067,0.003-0.103,0.01c-0.039,0.011-0.072,0.018-0.104,0.018
				c-0.214,0.054-0.408,0.188-0.58,0.391c-0.177,0.206-0.261,0.462-0.261,0.769V95.236z"/>
			<path fill="#2D3C64" d="M176.4,97.558c-0.337,0.213-0.692,0.357-1.056,0.433c-0.125,0.029-0.243,0.053-0.368,0.069
				c-0.121,0.021-0.229,0.024-0.344,0.024c-0.681,0-1.298-0.252-1.844-0.749c-0.543-0.506-0.817-1.308-0.817-2.42v-5.281
				c0-1.011,0.296-1.759,0.89-2.271c0.592-0.506,1.239-0.763,1.937-0.763c0.091,0,0.179,0,0.266,0.01
				c0.098,0.011,0.186,0.031,0.28,0.059c0.395,0.077,0.769,0.242,1.129,0.492c0.351,0.249,0.621,0.579,0.782,0.991V86.87h3.169
				v11.689c0,1.252-0.357,2.132-1.072,2.668c-0.715,0.533-1.503,0.837-2.374,0.93c-0.104,0.018-0.216,0.034-0.337,0.041
				c-0.122,0.007-0.236,0.007-0.344,0.007c-1.382,0-2.455-0.256-3.222-0.774c-0.767-0.517-1.188-1.373-1.266-2.571l3.328,0.024
				c0,0.01,0,0.027,0,0.044c-0.017,0.014-0.024,0.027-0.024,0.048c0,0.316,0.098,0.556,0.297,0.711
				c0.199,0.165,0.428,0.246,0.684,0.246c0.041,0,0.088,0,0.122,0c0.041,0,0.081-0.014,0.128-0.027
				c0.227-0.047,0.438-0.138,0.627-0.286c0.189-0.142,0.283-0.341,0.283-0.603v-2.209C177.03,97.093,176.744,97.349,176.4,97.558z
				 M175.139,94.119c0,0.392,0.09,0.719,0.273,0.959c0.182,0.238,0.388,0.383,0.613,0.428c0.017,0,0.038,0,0.058,0
				c0.023,0,0.041,0,0.054,0c0.034,0,0.063,0,0.094-0.007c0.027-0.011,0.067-0.018,0.114-0.018c0.182-0.054,0.351-0.202,0.513-0.431
				c0.159-0.223,0.24-0.54,0.24-0.932v-3.553c0-0.348-0.081-0.624-0.24-0.823c-0.162-0.195-0.331-0.323-0.513-0.384
				c-0.047,0-0.087-0.003-0.114-0.01c-0.031-0.011-0.061-0.014-0.094-0.014c-0.014,0-0.031,0-0.054,0c-0.02,0-0.041,0-0.058,0
				c-0.226,0.044-0.432,0.175-0.613,0.387c-0.183,0.213-0.273,0.496-0.273,0.844V94.119z"/>
			<path fill="#2D3C64" d="M182.405,83.026h3.348v2.732h-3.348V83.026z M182.405,86.87h3.348v11.531h-3.348V86.87z"/>
			<path fill="#2D3C64" d="M196.212,93.64v0.52c0,1.703-0.375,2.887-1.126,3.548c-0.755,0.659-1.821,0.99-3.204,0.99
				c-1.2,0-2.158-0.293-2.886-0.865c-0.722-0.581-1.076-1.495-1.076-2.755v-4.829c0-1.052,0.255-1.929,0.771-2.63
				c0.516-0.708,1.525-1.059,3.028-1.059c1.382,0,2.475,0.294,3.284,0.883c0.802,0.595,1.207,1.754,1.207,3.487v0.431h-3.169v-1.112
				c0-0.351-0.081-0.621-0.236-0.81c-0.162-0.188-0.33-0.31-0.513-0.35c-0.047,0-0.084-0.007-0.114-0.018
				c-0.034-0.007-0.064-0.01-0.091-0.01c-0.017,0-0.034,0-0.058,0c-0.019,0-0.04,0-0.06,0c-0.222,0.033-0.432,0.139-0.614,0.33
				c-0.182,0.192-0.27,0.425-0.27,0.715v4.971c0,0.362,0.088,0.654,0.27,0.875c0.182,0.217,0.392,0.352,0.614,0.398
				c0.021,0,0.041,0,0.06,0c0.024,0,0.041,0,0.058,0c0.026,0,0.057-0.003,0.091-0.014c0.03,0,0.067-0.007,0.114-0.007
				c0.183-0.066,0.351-0.195,0.513-0.414c0.156-0.212,0.236-0.489,0.236-0.839V93.64H196.212z"/>
			<path fill="#2D3C64" d="M202.352,98.219c-0.421,0.229-0.863,0.385-1.335,0.46c-0.074,0-0.159,0-0.236,0.009
				c-0.088,0.004-0.165,0.01-0.243,0.01c-0.017,0-0.03,0-0.054,0s-0.051,0-0.084,0c-0.728-0.029-1.396-0.297-2.003-0.796
				c-0.607-0.506-0.91-1.287-0.91-2.349c0-1.285,0.222-2.155,0.66-2.593c0.442-0.446,1.068-0.79,1.892-1.053
				c0.3-0.101,0.63-0.213,0.978-0.317c0.351-0.106,0.726-0.236,1.117-0.385c0.243-0.094,0.431-0.205,0.573-0.344
				c0.134-0.142,0.229-0.279,0.293-0.431c0.031-0.065,0.054-0.122,0.07-0.183c0.014-0.063,0.021-0.122,0.021-0.182
				c0-0.018,0-0.031,0-0.033c0-0.014,0-0.027,0-0.041c-0.014-0.243-0.108-0.465-0.296-0.682c-0.182-0.209-0.398-0.32-0.661-0.32
				c-0.577,0-0.964,0.132-1.174,0.401c-0.202,0.263-0.307,0.709-0.307,1.328h-3.166c0-1.437,0.377-2.469,1.139-3.085
				c0.755-0.613,1.807-0.92,3.143-0.92c1.642,0,2.774,0.27,3.398,0.81c0.622,0.54,0.979,1.136,1.065,1.786
				c0,0.074,0.008,0.155,0.014,0.243c0.008,0.08,0.014,0.161,0.014,0.239v6.558c0,0.439,0.014,0.749,0.044,0.935
				c0.031,0.183,0.06,0.341,0.091,0.476c0.031,0.094,0.062,0.182,0.091,0.276c0.031,0.091,0.063,0.215,0.091,0.363h-3.166
				l-0.159-1.115C203.069,97.683,202.767,97.991,202.352,98.219z M202.645,93.017c-0.145,0.063-0.283,0.138-0.418,0.212
				c-0.438,0.213-0.823,0.456-1.13,0.708c-0.31,0.257-0.465,0.621-0.465,1.093c0,0.018,0,0.031,0,0.048
				c0,0.014,0.007,0.025,0.021,0.039c0,0.017,0,0.034,0,0.055c0,0.014,0,0.034,0,0.064c0.017,0.286,0.128,0.525,0.334,0.717
				c0.202,0.189,0.418,0.298,0.647,0.332c0.027,0.013,0.061,0.02,0.088,0.02c0.03,0,0.068,0,0.094,0c0.027,0,0.068,0,0.102-0.007
				c0.041-0.007,0.071-0.013,0.102-0.013c0.276-0.061,0.526-0.232,0.742-0.517c0.222-0.28,0.33-0.668,0.33-1.17v-1.8
				C202.935,92.872,202.791,92.947,202.645,93.017z"/>
			<path fill="#2D3C64" d="M208.08,83.026h3.351v15.375h-3.351V83.026z"/>
		</g>
		<g>
			<path fill="#2D3C64" d="M234.027,92.319v2.435c0,1.157-0.361,2.03-1.073,2.623c-0.725,0.591-1.521,0.981-2.385,1.159
				c-0.255,0.068-0.516,0.105-0.774,0.126c-0.256,0.026-0.506,0.036-0.726,0.036c-1.709,0-2.963-0.377-3.771-1.14
				c-0.813-0.761-1.221-2.016-1.221-3.763V87.04c0-1.208,0.371-2.227,1.104-3.069c0.732-0.85,2.031-1.261,3.889-1.261
				c1.5,0,2.701,0.364,3.604,1.1c0.903,0.741,1.354,1.861,1.354,3.386v1.321h-3.875V86.56c0-0.31-0.099-0.553-0.32-0.723
				c-0.221-0.174-0.475-0.275-0.742-0.31c-0.014,0-0.029,0-0.057,0s-0.041,0-0.055,0c-0.02,0-0.041,0-0.061,0
				c-0.021,0-0.039,0-0.057,0c-0.288,0.034-0.547,0.143-0.772,0.33c-0.235,0.189-0.344,0.477-0.344,0.857v8.038
				c0,0.35,0.108,0.634,0.344,0.855c0.226,0.224,0.484,0.351,0.772,0.378c0.018,0,0.036,0,0.057,0c0.02,0,0.041,0,0.061,0
				c0.021,0,0.061,0,0.091,0c0.022,0,0.05-0.003,0.067-0.021c0.301-0.033,0.57-0.175,0.816-0.431
				c0.246-0.257,0.363-0.627,0.363-1.094v-2.123H234.027z"/>
			<path fill="#2D3C64" d="M235.691,83.026h3.324v4.647c0.239-0.304,0.501-0.551,0.813-0.732c0.314-0.182,0.617-0.307,0.947-0.381
				c0.114-0.018,0.235-0.037,0.352-0.054c0.11-0.014,0.218-0.017,0.33-0.017c0.696,0,1.324,0.246,1.864,0.738
				c0.557,0.492,0.824,1.186,0.824,2.083v9.09h-3.333v-8.152c0-0.337-0.072-0.594-0.236-0.775c-0.158-0.183-0.338-0.283-0.529-0.3
				c-0.012,0-0.026,0-0.039,0c-0.008,0-0.021,0-0.035,0c-0.027,0-0.061,0.01-0.092,0.017s-0.063,0.007-0.113,0.007
				c-0.18,0.067-0.355,0.188-0.51,0.378c-0.166,0.188-0.243,0.414-0.243,0.674v8.152h-3.324V83.026z"/>
			<path fill="#2D3C64" d="M250.281,98.219c-0.416,0.229-0.859,0.385-1.329,0.46c-0.081,0-0.158,0-0.239,0.009
				c-0.081,0.004-0.164,0.01-0.243,0.01c-0.01,0-0.029,0-0.056,0c-0.023,0-0.045,0-0.077,0c-0.723-0.029-1.395-0.297-2.004-0.796
				c-0.614-0.506-0.914-1.287-0.914-2.349c0-1.285,0.217-2.155,0.66-2.593c0.434-0.446,1.07-0.79,1.889-1.053
				c0.311-0.101,0.632-0.213,0.984-0.317c0.348-0.106,0.726-0.236,1.114-0.385c0.241-0.094,0.43-0.205,0.569-0.344
				c0.142-0.142,0.235-0.279,0.3-0.431c0.034-0.065,0.048-0.122,0.066-0.183c0.014-0.063,0.018-0.122,0.018-0.182
				c0-0.018,0-0.031,0-0.033c0-0.014,0-0.027,0-0.041c-0.01-0.243-0.111-0.465-0.293-0.682c-0.18-0.209-0.398-0.32-0.66-0.32
				c-0.577,0-0.965,0.132-1.174,0.401c-0.199,0.263-0.303,0.709-0.303,1.328h-3.171c0-1.437,0.385-2.469,1.139-3.085
				c0.756-0.613,1.812-0.92,3.147-0.92c1.645,0,2.774,0.27,3.392,0.81c0.635,0.54,0.981,1.136,1.076,1.786
				c0,0.074,0.006,0.155,0.01,0.243c0.004,0.08,0.006,0.161,0.006,0.239v6.558c0,0.439,0.014,0.749,0.052,0.935
				c0.026,0.183,0.056,0.341,0.083,0.476c0.027,0.094,0.066,0.182,0.095,0.276c0.026,0.091,0.058,0.215,0.095,0.363h-3.163
				l-0.166-1.115C251.001,97.683,250.703,97.991,250.281,98.219z M250.578,93.017c-0.135,0.063-0.283,0.138-0.426,0.212
				c-0.434,0.213-0.805,0.456-1.119,0.708c-0.311,0.257-0.471,0.621-0.471,1.093c0,0.018,0,0.031,0,0.048
				c0,0.014,0.006,0.025,0.027,0.039c0,0.017,0,0.034,0,0.055c0,0.014,0,0.034,0,0.064c0.01,0.286,0.123,0.525,0.322,0.717
				c0.203,0.189,0.428,0.298,0.65,0.332c0.035,0.013,0.064,0.02,0.098,0.02c0.023,0,0.059,0,0.088,0c0.025,0,0.065,0,0.104-0.007
				c0.039-0.007,0.068-0.013,0.104-0.013c0.271-0.061,0.519-0.232,0.74-0.517c0.217-0.28,0.324-0.668,0.324-1.17v-1.8
				C250.871,92.872,250.726,92.947,250.578,93.017z"/>
			<path fill="#2D3C64" d="M255.945,86.87h3.002v1.808c0.403-0.894,0.814-1.449,1.239-1.655c0.441-0.206,0.889-0.307,1.363-0.307
				v3.533c-0.898,0-1.5,0.061-1.811,0.189c-0.312,0.131-0.47,0.6-0.47,1.404v6.559h-3.324V86.87z"/>
			<path fill="#2D3C64" d="M267.5,98.219c-0.41,0.229-0.854,0.385-1.33,0.46c-0.077,0-0.15,0-0.239,0.009
				c-0.079,0.004-0.16,0.01-0.241,0.01c-0.012,0-0.031,0-0.058,0c-0.014,0-0.041,0-0.071,0c-0.728-0.029-1.401-0.297-2.007-0.796
				c-0.609-0.506-0.912-1.287-0.912-2.349c0-1.285,0.226-2.155,0.664-2.593c0.438-0.446,1.068-0.79,1.88-1.053
				c0.308-0.101,0.639-0.213,0.984-0.317c0.352-0.106,0.727-0.236,1.12-0.385c0.247-0.094,0.433-0.205,0.563-0.344
				c0.141-0.142,0.236-0.279,0.303-0.431c0.031-0.065,0.049-0.122,0.064-0.183c0.014-0.063,0.027-0.122,0.027-0.182
				c0-0.018,0-0.031,0-0.033c0-0.014,0-0.027,0-0.041c-0.02-0.243-0.109-0.465-0.299-0.682c-0.182-0.209-0.393-0.32-0.659-0.32
				c-0.583,0-0.964,0.132-1.172,0.401c-0.21,0.263-0.311,0.709-0.311,1.328h-3.166c0-1.437,0.374-2.469,1.129-3.085
				c0.769-0.613,1.82-0.92,3.157-0.92c1.637,0,2.768,0.27,3.392,0.81c0.619,0.54,0.973,1.136,1.075,1.786
				c0,0.074,0,0.155,0.005,0.243c0.008,0.08,0.014,0.161,0.014,0.239v6.558c0,0.439,0.018,0.749,0.041,0.935
				c0.031,0.183,0.064,0.341,0.095,0.476c0.034,0.094,0.067,0.182,0.095,0.276c0.027,0.091,0.055,0.215,0.091,0.363h-3.17
				l-0.16-1.115C268.221,97.683,267.926,97.991,267.5,98.219z M267.807,93.017c-0.148,0.063-0.283,0.138-0.426,0.212
				c-0.435,0.213-0.814,0.456-1.131,0.708c-0.306,0.257-0.46,0.621-0.46,1.093c0,0.018,0,0.031,0,0.048c0,0.014,0,0.025,0.018,0.039
				c0,0.017,0,0.034,0,0.055c0,0.014,0,0.034,0,0.064c0.017,0.286,0.123,0.525,0.334,0.717c0.198,0.189,0.425,0.298,0.65,0.332
				c0.03,0.013,0.06,0.02,0.083,0.02c0.035,0,0.071,0,0.102,0c0.031,0,0.064,0,0.092-0.007c0.046-0.007,0.08-0.013,0.107-0.013
				c0.271-0.061,0.516-0.232,0.742-0.517c0.221-0.28,0.33-0.668,0.33-1.17v-1.8C268.09,92.872,267.946,92.947,267.807,93.017z"/>
			<path fill="#2D3C64" d="M281.456,93.64v0.52c0,1.703-0.371,2.887-1.116,3.548c-0.759,0.659-1.826,0.99-3.203,0.99
				c-1.202,0-2.167-0.293-2.882-0.865c-0.727-0.581-1.087-1.495-1.087-2.755v-4.829c0-1.052,0.253-1.929,0.771-2.63
				c0.525-0.708,1.533-1.059,3.036-1.059c1.377,0,2.479,0.294,3.274,0.883c0.809,0.595,1.207,1.754,1.207,3.487v0.431H278.3v-1.112
				c0-0.351-0.08-0.621-0.252-0.81c-0.16-0.188-0.321-0.31-0.51-0.35c-0.045,0-0.082-0.007-0.108-0.018
				c-0.031-0.007-0.063-0.01-0.091-0.01c-0.01,0-0.037,0-0.064,0c-0.017,0-0.038,0-0.053,0c-0.23,0.033-0.434,0.139-0.614,0.33
				c-0.18,0.192-0.274,0.425-0.274,0.715v4.971c0,0.362,0.095,0.654,0.274,0.875c0.181,0.217,0.384,0.352,0.614,0.398
				c0.015,0,0.036,0,0.053,0c0.027,0,0.055,0,0.064,0c0.027,0,0.06-0.003,0.091-0.014c0.026,0,0.063-0.007,0.108-0.007
				c0.188-0.066,0.35-0.195,0.51-0.414c0.172-0.212,0.252-0.489,0.252-0.839V93.64H281.456z"/>
			<path fill="#2D3C64" d="M283.849,83.708h3.328v3.162h1.64v2.441h-1.64v6.087c0,0.238,0.067,0.428,0.193,0.555
				c0.128,0.129,0.316,0.196,0.556,0.196c0.064,0,0.135-0.007,0.219-0.027c0.084-0.013,0.172-0.033,0.266-0.047
				c0.027,0,0.059,0,0.086-0.006c0.027-0.01,0.057-0.014,0.098-0.014s0.092-0.003,0.123-0.01c0.037-0.007,0.068-0.011,0.1-0.011
				v2.366h-3.067c-0.652,0-1.121-0.241-1.432-0.744c-0.311-0.489-0.469-1.083-0.469-1.784v-6.562h-1.278V86.87h1.278V83.708z"/>
			<path fill="#2D3C64" d="M293.234,94.916c0,0.452,0.113,0.816,0.336,1.078c0.22,0.271,0.459,0.411,0.708,0.425
				c0.023,0,0.037,0,0.041,0c0.01,0,0.018,0,0.04,0c0.008,0,0.021,0,0.023,0c0.008,0,0.031,0,0.044,0
				c0.268-0.014,0.525-0.161,0.746-0.441c0.23-0.279,0.348-0.691,0.348-1.224v-0.472h3.155v0.432c0,1.227-0.337,2.204-1.015,2.913
				c-0.688,0.715-1.672,1.071-2.944,1.071c-1.379,0-2.498-0.304-3.357-0.924c-0.856-0.613-1.292-1.517-1.292-2.696v-4.829
				c0-1.368,0.476-2.327,1.419-2.872c0.939-0.55,2.016-0.816,3.23-0.816c1.272,0,2.257,0.304,2.944,0.924
				c0.678,0.609,1.015,1.483,1.015,2.623v3.015h-5.441V94.916z M295.678,91.044v-0.432c0-0.486-0.115-0.904-0.344-1.254
				c-0.221-0.351-0.555-0.522-0.976-0.522c-0.475,0-0.777,0.219-0.913,0.671c-0.139,0.451-0.212,0.938-0.212,1.467
				c0,0.017,0,0.026,0,0.033s0,0.023,0,0.037H295.678z"/>
			<path fill="#2D3C64" d="M300.435,86.87h3.007v1.808c0.395-0.894,0.81-1.449,1.238-1.655c0.438-0.206,0.886-0.307,1.364-0.307
				v3.533c-0.903,0-1.503,0.061-1.811,0.189c-0.313,0.131-0.467,0.6-0.467,1.404v6.559h-3.332V86.87z"/>
			<path fill="#2D3C64" d="M307.838,83.026h3.346v2.732h-3.346V83.026z M307.838,86.87h3.346v11.531h-3.346V86.87z"/>
			<path fill="#2D3C64" d="M315.557,94.916c0.021,0.535,0.125,0.931,0.342,1.2c0.205,0.26,0.424,0.425,0.666,0.485
				c0.049,0,0.088,0,0.125,0.01c0.037,0.011,0.072,0.014,0.104,0.014c0.304,0,0.577-0.111,0.831-0.327
				c0.248-0.223,0.375-0.469,0.375-0.744c0-0.274-0.121-0.503-0.349-0.691c-0.237-0.196-0.532-0.375-0.897-0.558
				c-0.223-0.09-0.445-0.191-0.674-0.3c-0.236-0.107-0.476-0.222-0.727-0.344c-0.65-0.33-1.257-0.769-1.809-1.314
				c-0.554-0.55-0.824-1.346-0.824-2.395c0-1.143,0.347-1.966,1.06-2.468c0.729-0.516,1.51-0.809,2.38-0.884
				c0.098-0.013,0.213-0.026,0.336-0.037c0.131-0.003,0.23-0.003,0.342-0.003c0.988,0,1.881,0.31,2.679,0.954
				c0.801,0.638,1.197,1.515,1.197,2.619v0.271h-2.874v-0.337c0-0.398-0.098-0.694-0.283-0.904
				c-0.189-0.202-0.398-0.316-0.627-0.354c-0.031-0.018-0.055-0.024-0.082-0.024c-0.018,0-0.047,0-0.08,0
				c-0.047,0-0.086,0.007-0.123,0.018c-0.039,0.007-0.076,0.007-0.094,0.007c-0.223,0.064-0.417,0.172-0.589,0.334
				c-0.18,0.154-0.263,0.344-0.263,0.559l0.02,0.092c0.031,0.3,0.18,0.55,0.441,0.745c0.254,0.199,0.561,0.381,0.922,0.55
				c0.186,0.097,0.377,0.179,0.569,0.262c0.188,0.086,0.38,0.173,0.579,0.261c0.577,0.29,1.116,0.675,1.616,1.14
				c0.494,0.472,0.785,1.141,0.867,2.003v0.438c0,0.924-0.307,1.739-0.908,2.451c-0.614,0.704-1.698,1.055-3.288,1.055
				c-1.342,0-2.303-0.351-2.899-1.055c-0.593-0.712-0.897-1.615-0.897-2.728H315.557z"/>
			<path fill="#2D3C64" d="M326.832,98.219c-0.427,0.229-0.863,0.385-1.338,0.46c-0.067,0-0.152,0-0.243,0.009
				c-0.077,0.004-0.158,0.01-0.232,0.01c-0.021,0-0.039,0-0.057,0c-0.023,0-0.041,0-0.074,0c-0.734-0.029-1.396-0.297-2.006-0.796
				c-0.617-0.506-0.919-1.287-0.919-2.349c0-1.285,0.229-2.155,0.666-2.593c0.438-0.446,1.067-0.79,1.888-1.053
				c0.304-0.101,0.625-0.213,0.978-0.317c0.344-0.106,0.723-0.236,1.116-0.385c0.247-0.094,0.433-0.205,0.569-0.344
				c0.135-0.142,0.234-0.279,0.297-0.431c0.033-0.065,0.055-0.122,0.074-0.183c0.008-0.063,0.014-0.122,0.014-0.182
				c0-0.018,0-0.031,0-0.033c0-0.014,0-0.027,0-0.041c-0.006-0.243-0.115-0.465-0.281-0.682c-0.187-0.209-0.416-0.32-0.673-0.32
				c-0.577,0-0.964,0.132-1.174,0.401c-0.199,0.263-0.307,0.709-0.307,1.328h-3.167c0-1.437,0.383-2.469,1.147-3.085
				c0.752-0.613,1.811-0.92,3.139-0.92c1.64,0,2.769,0.27,3.396,0.81c0.619,0.54,0.98,1.136,1.068,1.786
				c0,0.074,0.002,0.155,0.016,0.243c0,0.08,0.008,0.161,0.008,0.239v6.558c0,0.439,0.014,0.749,0.045,0.935
				c0.033,0.183,0.057,0.341,0.086,0.476c0.037,0.094,0.068,0.182,0.102,0.276c0.027,0.091,0.053,0.215,0.08,0.363h-3.161
				l-0.158-1.115C327.55,97.683,327.251,97.991,326.832,98.219z M327.119,93.017c-0.139,0.063-0.283,0.138-0.41,0.212
				c-0.446,0.213-0.821,0.456-1.138,0.708c-0.303,0.257-0.465,0.621-0.465,1.093c0,0.018,0,0.031,0,0.048
				c0,0.014,0.008,0.025,0.023,0.039c0,0.017,0,0.034,0,0.055c0,0.014,0,0.034,0,0.064c0.012,0.286,0.121,0.525,0.332,0.717
				c0.208,0.189,0.426,0.298,0.646,0.332c0.036,0.013,0.06,0.02,0.099,0.02c0.028,0,0.056,0,0.086,0c0.031,0,0.064,0,0.104-0.007
				c0.037-0.007,0.071-0.013,0.099-0.013c0.272-0.061,0.529-0.232,0.746-0.517c0.215-0.28,0.322-0.668,0.322-1.17v-1.8
				C327.414,92.872,327.267,92.947,327.119,93.017z"/>
			<path fill="#2D3C64" d="M333.124,83.708h3.328v3.162h1.639v2.441h-1.639v6.087c0,0.238,0.067,0.428,0.195,0.555
				c0.135,0.129,0.311,0.196,0.554,0.196c0.067,0,0.138-0.007,0.218-0.027c0.082-0.013,0.176-0.033,0.271-0.047
				c0.021,0,0.047,0,0.08-0.006c0.037-0.01,0.068-0.014,0.092-0.014c0.053,0,0.094-0.003,0.131-0.01s0.07-0.011,0.098-0.011v2.366
				h-3.071c-0.633,0-1.109-0.241-1.423-0.744c-0.311-0.489-0.473-1.083-0.473-1.784v-6.562h-1.274V86.87h1.274V83.708z"/>
			<path fill="#2D3C64" d="M339.888,83.026h3.355v2.732h-3.355V83.026z M339.888,86.87h3.355v11.531h-3.355V86.87z"/>
			<path fill="#2D3C64" d="M345.404,89.793c0-0.991,0.392-1.776,1.178-2.36c0.783-0.583,1.779-0.873,2.99-0.873
				c1.523,0,2.589,0.327,3.202,0.998c0.615,0.672,0.924,1.409,0.924,2.235v5.604c0,1.108-0.35,1.938-1.049,2.483
				c-0.705,0.547-1.726,0.816-3.077,0.816c-1.512,0-2.587-0.313-3.22-0.943c-0.635-0.634-0.948-1.417-0.948-2.356V89.793z
				 M348.58,95.236c0,0.354,0.081,0.637,0.261,0.853c0.171,0.223,0.362,0.361,0.573,0.425c0.029,0,0.067,0,0.101,0.007
				c0.04,0.014,0.073,0.014,0.108,0.014c0.006,0,0.032,0,0.058,0c0.022,0,0.04,0,0.056,0c0.199-0.027,0.379-0.138,0.551-0.33
				c0.158-0.189,0.239-0.458,0.239-0.806v-5.149c0-0.351-0.081-0.624-0.239-0.822c-0.172-0.196-0.352-0.317-0.551-0.364
				c-0.016,0-0.033,0-0.056,0c-0.025,0-0.052,0-0.058,0c-0.035,0-0.068,0.003-0.108,0.01c-0.033,0.011-0.071,0.018-0.101,0.018
				c-0.211,0.054-0.402,0.188-0.573,0.391c-0.18,0.206-0.261,0.462-0.261,0.769V95.236z"/>
			<path fill="#2D3C64" d="M355.453,86.87h3.004v1.646c0.194-0.533,0.492-0.951,0.892-1.242c0.393-0.296,0.807-0.479,1.255-0.559
				c0.085-0.018,0.176-0.023,0.249-0.033c0.093-0.007,0.18-0.014,0.271-0.014c0.674,0,1.269,0.208,1.811,0.63
				c0.539,0.415,0.809,0.98,0.809,1.692v9.41h-3.165v-7.997c0-0.303-0.084-0.546-0.236-0.729c-0.162-0.182-0.338-0.296-0.52-0.34
				c-0.04,0-0.08-0.004-0.107-0.011c-0.023-0.01-0.059-0.014-0.098-0.014c-0.014,0-0.02,0-0.027,0c-0.002,0-0.025,0-0.039,0
				c-0.193,0.014-0.373,0.111-0.533,0.287s-0.238,0.444-0.238,0.806v7.997h-3.325V86.87z"/>
		</g>
		<g>
			<path fill="#2D3C64" d="M379.768,93.122c0,0.026,0,0.054,0,0.084c0,0.037,0,0.058,0,0.098c-0.02,0.027-0.023,0.062-0.023,0.102
				c0,0.034,0,0.066,0,0.101c-0.018,0.061-0.031,0.115-0.041,0.187c-0.007,0.057-0.007,0.104-0.007,0.154
				c0,0.685,0.134,1.201,0.413,1.552c0.271,0.348,0.572,0.528,0.91,0.542c0.017,0,0.022,0,0.03,0c0.009,0,0.022,0,0.04,0
				c0.023,0,0.064,0,0.101,0c0.03,0,0.071-0.007,0.103-0.023c0.275-0.061,0.516-0.212,0.737-0.463
				c0.226-0.255,0.334-0.592,0.334-1.012c0-0.447-0.148-0.828-0.448-1.139c-0.297-0.324-0.658-0.627-1.1-0.917
				c-0.223-0.151-0.436-0.293-0.664-0.431c-0.227-0.135-0.456-0.288-0.678-0.459c-0.732-0.466-1.402-1.052-2.011-1.754
				c-0.605-0.697-0.912-1.639-0.912-2.825c0-0.014,0.01-0.03,0.018-0.048c0.006-0.009,0.006-0.033,0.006-0.061
				c0-0.014,0.01-0.034,0.014-0.05c0.008-0.014,0.009-0.03,0.009-0.044c0-0.074,0-0.155,0.008-0.226
				c0.009-0.078,0.017-0.155,0.017-0.229c0.138-0.901,0.598-1.71,1.389-2.451c0.786-0.735,1.802-1.1,3.031-1.1
				c1.231,0,2.313,0.371,3.241,1.109c0.937,0.749,1.405,1.926,1.405,3.537v0.317h-3.324v-0.436c0-0.533-0.108-0.941-0.326-1.23
				c-0.206-0.29-0.442-0.473-0.704-0.547c-0.059-0.013-0.113-0.02-0.152-0.029c-0.051-0.011-0.092-0.018-0.14-0.018
				c-0.016,0-0.032,0-0.036,0s-0.02,0-0.033,0c-0.258,0.021-0.5,0.128-0.719,0.345c-0.221,0.215-0.328,0.479-0.328,0.802
				c0,0.466,0.158,0.856,0.492,1.167c0.324,0.317,0.715,0.606,1.193,0.876c0.184,0.128,0.373,0.243,0.581,0.357
				c0.205,0.111,0.411,0.229,0.624,0.351c0.7,0.411,1.345,0.938,1.929,1.585c0.582,0.646,0.897,1.559,0.943,2.744v0.392
				c0,1.787-0.482,3.015-1.443,3.676c-0.968,0.659-2.083,0.99-3.368,0.99l-0.475,0.021c-1.289-0.073-2.287-0.506-2.979-1.302
				c-0.683-0.782-1.034-1.901-1.034-3.345c0-0.077,0.008-0.147,0.018-0.226c0.006-0.077,0.013-0.151,0.013-0.232
				c0-0.023,0-0.055,0-0.088c0-0.027,0-0.061,0-0.091c0.014-0.044,0.02-0.098,0.02-0.162c0-0.058,0-0.111,0-0.151H379.768z"/>
			<path fill="#2D3C64" d="M390.125,94.916c0,0.452,0.108,0.816,0.335,1.078c0.225,0.271,0.455,0.411,0.725,0.425
				c0.016,0,0.02,0,0.023,0c0.006,0,0.02,0,0.037,0c0.014,0,0.031,0,0.037,0c0.012,0,0.014,0,0.026,0
				c0.278-0.014,0.523-0.161,0.757-0.441c0.231-0.279,0.34-0.691,0.34-1.224v-0.472h3.172v0.432c0,1.227-0.343,2.204-1.024,2.913
				c-0.688,0.715-1.663,1.071-2.942,1.071c-1.381,0-2.503-0.304-3.362-0.924c-0.857-0.613-1.281-1.517-1.281-2.696v-4.829
				c0-1.368,0.465-2.327,1.409-2.872c0.94-0.55,2.02-0.816,3.234-0.816c1.279,0,2.255,0.304,2.942,0.924
				c0.682,0.609,1.024,1.483,1.024,2.623v3.015h-5.452V94.916z M392.574,91.044v-0.432c0-0.486-0.124-0.904-0.35-1.254
				c-0.224-0.351-0.554-0.522-0.979-0.522c-0.465,0-0.776,0.219-0.91,0.671c-0.135,0.451-0.21,0.938-0.21,1.467
				c0,0.017,0,0.026,0,0.033s0,0.023,0,0.037H392.574z"/>
			<path fill="#2D3C64" d="M397.333,86.87h3.006v1.808c0.396-0.894,0.807-1.449,1.246-1.655c0.424-0.206,0.885-0.307,1.347-0.307
				v3.533c-0.896,0-1.5,0.061-1.813,0.189c-0.307,0.131-0.465,0.6-0.465,1.404v6.559h-3.32V86.87z"/>
			<path fill="#2D3C64" d="M403.771,87.04h3.514l0.796,7.402l1.303-7.402h3.189l-2.557,11.361h-3.847L403.771,87.04z"/>
			<path fill="#2D3C64" d="M414.298,83.026h3.355v2.732h-3.355V83.026z M414.298,86.87h3.355v11.531h-3.355V86.87z"/>
			<path fill="#2D3C64" d="M428.112,93.64v0.52c0,1.703-0.38,2.887-1.134,3.548c-0.754,0.659-1.822,0.99-3.198,0.99
				c-1.201,0-2.168-0.293-2.891-0.865c-0.708-0.581-1.075-1.495-1.075-2.755v-4.829c0-1.052,0.261-1.929,0.769-2.63
				c0.52-0.708,1.531-1.059,3.039-1.059c1.374,0,2.468,0.294,3.274,0.883c0.813,0.595,1.216,1.754,1.216,3.487v0.431h-3.168v-1.112
				c0-0.351-0.085-0.621-0.251-0.81c-0.154-0.188-0.322-0.31-0.506-0.35c-0.036,0-0.083-0.007-0.11-0.018
				c-0.038-0.007-0.067-0.01-0.098-0.01c-0.01,0-0.027,0-0.055,0c-0.023,0-0.037,0-0.058,0c-0.226,0.033-0.431,0.139-0.61,0.33
				c-0.189,0.192-0.275,0.425-0.275,0.715v4.971c0,0.362,0.086,0.654,0.275,0.875c0.18,0.217,0.385,0.352,0.61,0.398
				c0.021,0,0.034,0,0.058,0c0.027,0,0.045,0,0.055,0c0.03,0,0.06-0.003,0.098-0.014c0.027,0,0.074-0.007,0.11-0.007
				c0.184-0.066,0.352-0.195,0.506-0.414c0.166-0.212,0.251-0.489,0.251-0.839V93.64H428.112z"/>
			<path fill="#2D3C64" d="M432.708,94.916c0,0.452,0.113,0.816,0.334,1.078c0.215,0.271,0.453,0.411,0.711,0.425
				c0.018,0,0.034,0,0.04,0c0.008,0,0.01,0,0.032,0c0.012,0,0.021,0,0.031,0c0.008,0,0.021,0,0.037,0
				c0.271-0.014,0.518-0.161,0.753-0.441c0.229-0.279,0.334-0.691,0.334-1.224v-0.472h3.172v0.432c0,1.227-0.348,2.204-1.021,2.913
				c-0.691,0.715-1.666,1.071-2.944,1.071c-1.382,0-2.502-0.304-3.353-0.924c-0.863-0.613-1.297-1.517-1.297-2.696v-4.829
				c0-1.368,0.477-2.327,1.414-2.872c0.94-0.55,2.016-0.816,3.235-0.816c1.278,0,2.253,0.304,2.944,0.924
				c0.674,0.609,1.021,1.483,1.021,2.623v3.015h-5.444V94.916z M435.145,91.044v-0.432c0-0.486-0.114-0.904-0.34-1.254
				c-0.229-0.351-0.552-0.522-0.979-0.522c-0.475,0-0.781,0.219-0.908,0.671c-0.141,0.451-0.209,0.938-0.209,1.467
				c0,0.017,0,0.026,0,0.033s0,0.023,0,0.037H435.145z"/>
			<path fill="#2D3C64" d="M442.122,94.916c0.014,0.535,0.124,0.931,0.33,1.2c0.195,0.26,0.426,0.425,0.664,0.485
				c0.049,0,0.088,0,0.132,0.01c0.03,0.011,0.067,0.014,0.103,0.014c0.299,0,0.584-0.111,0.828-0.327
				c0.247-0.223,0.371-0.469,0.371-0.744c0-0.274-0.114-0.503-0.348-0.691c-0.24-0.196-0.539-0.375-0.904-0.558
				c-0.212-0.09-0.43-0.191-0.67-0.3c-0.235-0.107-0.473-0.222-0.714-0.344c-0.654-0.33-1.255-0.769-1.809-1.314
				c-0.559-0.55-0.832-1.346-0.832-2.395c0-1.143,0.357-1.966,1.064-2.468c0.715-0.516,1.509-0.809,2.372-0.884
				c0.1-0.013,0.222-0.026,0.348-0.037c0.113-0.003,0.227-0.003,0.33-0.003c0.994,0,1.892,0.31,2.687,0.954
				c0.792,0.638,1.193,1.515,1.193,2.619v0.271h-2.872v-0.337c0-0.398-0.096-0.694-0.287-0.904c-0.184-0.202-0.4-0.316-0.621-0.354
				c-0.033-0.018-0.061-0.024-0.086-0.024c-0.023,0-0.049,0-0.076,0c-0.047,0-0.083,0.007-0.127,0.018
				c-0.033,0.007-0.072,0.007-0.104,0.007c-0.208,0.064-0.405,0.172-0.583,0.334c-0.17,0.154-0.261,0.344-0.261,0.559l0.027,0.092
				c0.026,0.3,0.175,0.55,0.433,0.745c0.254,0.199,0.568,0.381,0.934,0.55c0.186,0.097,0.363,0.179,0.559,0.262
				c0.189,0.086,0.386,0.173,0.585,0.261c0.579,0.29,1.115,0.675,1.613,1.14c0.5,0.472,0.786,1.141,0.867,2.003v0.438
				c0,0.924-0.307,1.739-0.917,2.451c-0.606,0.704-1.697,1.055-3.277,1.055c-1.333,0-2.306-0.351-2.903-1.055
				c-0.604-0.712-0.896-1.615-0.896-2.728H442.122z"/>
		</g>
	</g>
	<g>
		<g>
			<path fill="#4D69B0" d="M112.65,0.851h11.407v9.314H112.65V0.851z M112.65,13.968h11.407v39.268H112.65V13.968z"/>
			<path fill="#4D69B0" d="M131.886,25.763h18.006v11.02h-18.006V25.763z"/>
			<path fill="#4D69B0" d="M163.402,11.445h-9.7V1.2h31.505v10.245h-9.155v41.44h-12.65V11.445z"/>
			<path fill="#4D69B0" d="M222.727,52.886c0,0-0.27-5.754-0.27-6.521l-0.539-12.569c0-1.656-0.547-3.026-1.631-4.114
				c-1.092-1.086-2.59-1.888-4.502-2.406c2.432-1.084,4.15-2.715,5.156-4.887c1.01-2.174,1.516-4.915,1.516-8.227
				c-0.26-4.605-1.707-7.916-4.346-9.934C215.475,2.21,212.004,1.2,207.713,1.2h-18.082v51.686h12.495v-20.18h2.872
				c1.863,0,3.13,0.417,3.8,1.244c0.672,0.828,1.01,2.096,1.01,3.802V48.54c0,1.914,0.23,3.117,0.695,3.608
				c0.467,0.493,1.5,0.737,3.104,0.737h8.963H222.727z M209.809,17.265c0,2.226-0.506,3.829-1.512,4.812
				c-1.01,0.983-2.112,1.476-3.298,1.476h-2.872V9.815c1.965,0,3.605,0.245,4.926,0.736c1.318,0.491,2.236,2.239,2.756,5.239V17.265
				z"/>
			<path fill="#4D69B0" d="M229.442,1.2h12.492v51.686h-12.492V1.2z"/>
			<path fill="#4D69B0" d="M248.299,1.2h16.998c4.031,0,7.678,0.92,10.936,2.754c3.262,1.839,4.895,5.061,4.895,9.664
				c0,2.947-0.484,5.252-1.439,6.908c-0.955,1.654-2.006,2.843-3.145,3.567c-0.461,0.259-0.932,0.478-1.395,0.66
				c-0.461,0.181-0.877,0.3-1.238,0.348c2.738,1.348,4.717,2.886,5.934,4.618c1.211,1.735,1.822,4.413,1.822,8.032
				c0,4.866-1.215,8.603-3.646,11.214c-2.432,2.613-6.494,3.92-12.184,3.92h-17.537V1.2z M266.655,20.137
				c1.215-0.827,1.82-2.638,1.82-5.433c0-1.346-0.377-2.404-1.121-3.182c-0.758-0.776-1.805-1.165-3.145-1.165h-3.957V21.38
				C263.297,21.38,265.434,20.964,266.655,20.137z M267.194,42.718c1.578-0.67,2.371-2.507,2.371-5.508
				c0-2.795-0.857-4.541-2.559-5.24c-1.709-0.699-3.961-1.175-6.754-1.436v13.193C263.297,43.728,265.622,43.392,267.194,42.718z"/>
			<path fill="#4D69B0" d="M287.605,14.427c0-5.113,1.635-8.73,4.913-10.852c3.269-2.123,7.23-3.185,11.886-3.185
				c0.614,0,1.237,0.027,1.879,0.079c0.637,0.051,1.264,0.101,1.884,0.153c3.27,0.459,6.245,1.714,8.934,3.756
				c2.683,2.045,4.022,5.396,4.022,10.049v22.78c0,5.061-1.34,9.076-4.022,12.039c-2.688,2.967-7.096,4.449-13.231,4.449
				c-6.239,0-10.508-1.674-12.807-5.025c-2.308-3.346-3.457-7.168-3.457-11.463V14.427z M299.955,39.888
				c0,1.435,0.449,2.522,1.342,3.263c0.896,0.741,1.882,1.112,2.956,1.112c0.052,0,0.087,0,0.115,0c0.022,0,0.062,0,0.113,0
				c1.02-0.052,1.97-0.433,2.836-1.15c0.872-0.716,1.305-1.79,1.305-3.225V13.892c0-1.431-0.433-2.505-1.305-3.224
				c-0.866-0.713-1.816-1.099-2.836-1.151c-0.052,0-0.091,0-0.113,0c-0.028,0-0.063,0-0.115,0c-1.074,0-2.06,0.358-2.956,1.073
				c-0.893,0.718-1.342,1.818-1.342,3.302V39.888z"/>
			<path fill="#2D3C64" d="M327.53,1.2h17.465l5.969,30.965L357.407,1.2h16.916v51.686h-11.326l1.09-39.813l-8.85,39.813h-8.615
				l-8.846-39.813l1.627,39.813H327.53V1.2z"/>
			<path fill="#2D3C64" d="M392.856,1.2h14.197l11.57,51.686h-12.656l-1.623-10.242h-9.313l-1.631,10.242h-12.42L392.856,1.2z
				 M402.711,33.253l-3.176-22.896l-3.422,22.896H402.711z"/>
			<path fill="#2D3C64" d="M428.725,11.445h-9.701V1.2h31.512v10.245h-9.162v41.44h-12.648V11.445z"/>
		</g>
	</g>
</g>
<g>
	<path fill="#4D69B0" d="M94.189,56.419l0.325-0.073h-23.18c-2.617,8.941-10.869,15.486-20.655,15.486
		c-11.9,0-21.543-9.651-21.543-21.539c0-11.9,9.64-21.545,21.537-21.545V6.334c-1.25,0-2.476,0.072-3.704,0.173l-3.011-6.432
		c-3.107,0.408-6.117,1.099-9.02,2.049l0.079,7.103c-2.333,0.887-4.561,1.969-6.682,3.219l-5.506-4.487
		c-2.586,1.702-4.999,3.637-7.222,5.77l3.146,6.369c-1.701,1.798-3.25,3.723-4.629,5.788l-6.908-1.658
		c-1.584,2.63-2.929,5.413-4.017,8.323l5.601,4.372c-0.745,2.334-1.292,4.754-1.641,7.232L0.219,45.67C0.079,47.188,0,48.73,0,50.29
		c0,1.559,0.079,3.097,0.219,4.623l6.939,1.507c0.349,2.488,0.896,4.902,1.641,7.239l-5.601,4.365
		c1.088,2.922,2.433,5.698,4.017,8.324l6.908-1.66c1.379,2.064,2.928,3.996,4.629,5.792l-3.146,6.366
		c2.223,2.141,4.636,4.073,7.222,5.782l5.506-4.495c2.122,1.248,4.349,2.334,6.682,3.218l-0.079,7.109
		c2.903,0.945,5.912,1.634,9.02,2.049l3.011-6.443c1.229,0.11,2.458,0.174,3.711,0.174c1.244,0,2.475-0.063,3.701-0.174l3.016,6.443
		c3.104-0.415,6.117-1.104,9.015-2.049l-0.073-7.109c2.32-0.884,4.557-1.97,6.675-3.218l5.512,4.495
		c2.581-1.709,4.991-3.642,7.215-5.782l-3.144-6.366c1.7-1.796,3.246-3.728,4.631-5.792l6.915,1.66
		c1.575-2.626,2.924-5.402,4.007-8.324l-5.6-4.365C93.293,61.322,93.842,58.908,94.189,56.419z"/>
	<g>
		<g>
			<path fill="#2D3C64" d="M96.77,48.14h-6.091c0-19.866-14.886-36.024-33.184-36.024V6.027C79.15,6.027,96.77,24.919,96.77,48.14z"
				/>
		</g>
		<g>
			<path fill="#2D3C64" d="M84.067,47.934h-6.091c0-12.868-9.189-23.336-20.481-23.336V18.51
				C72.148,18.51,84.067,31.709,84.067,47.934z"/>
		</g>
		<g>
			<path fill="#2D3C64" d="M71.424,47.934h-6.091c0-5.886-3.517-10.673-7.838-10.673v-6.09
				C65.176,31.171,71.424,38.69,71.424,47.934z"/>
		</g>
	</g>
</g>
</svg>
